{"title":"Videodrome.1983.BRRip.SweSub.Xvid","uid":8401263,"size":734017778,"categoryP":"video","categoryS":"movies","magnet":"?xt=urn:btih:77538be6f606f6a9d11ae18d65d962a14cfd9f13&amp;dn=Videodrome.1983.BRRip.SweSub.Xvid&amp;tr=udp%3A%2F%2Ftracker.openbittorrent.com%3A80&amp;tr=udp%3A%2F%2Fopen.demonii.com%3A1337&amp;tr=udp%3A%2F%2Ftracker.coppersurfer.tk%3A6969&amp;tr=udp%3A%2F%2Fexodus.desync.com%3A6969","seeders":1,"leechers":0,"uploader":"nordjok","files":-1,"time":1366704888,"description":"                            Swedish Hardsub\n\n\n &lt;a href=&quot;\nhttp://www.imdb.com/title/tt0086541/&quot; rel=&quot;nofollow&quot; target=&quot;_NEW&quot;&gt;\nhttp://www.imdb.com/title/tt0086541/&lt;/a&gt;\n\n\nGeneral\nComplete name                       : Videodrome.1983.BRRip.SweSub.Xvid.avi\nFormat                              : AVI\nFormat/Info                         : Audio Video Interleave\nFile size                           : 700 MiB\nDuration                            : 1h 27mn\n\n\nVideo\nID                                  : 0\nFormat                              : MPEG-4 Visual\nFormat profile                      : Advanced Simple@L5\nFormat settings, BVOP               : 2\nFormat settings, QPel               : No\nFormat settings, GMC                : No warppoints\nFormat settings, Matrix             : Default (H.263)\nCodec ID                            : XVID\nCodec ID/Hint                       : XviD\nDuration                            : 1h 27mn\nBit rate                            : 985 Kbps\nWidth                               : 656 pixels\nHeight                              : 352 pixels\nDisplay aspect ratio                : 1.85:1\nFrame rate                          : 23.976 fps\nColor space                         : YUV\nChroma subsampling                  : 4:2:0\nBit depth                           : 8 bits\nScan type                           : Progressive\nCompression mode                    : Lossy\nBits/(Pixel*Frame)                  : 0.178\nStream size                         : 613 MiB (88%)\nWriting library                     : XviD 73\n\nAudio\nID                                  : 1\nFormat                              : MPEG Audio\nFormat version                      : Version 1\nFormat profile                      : Layer 3\nCodec ID                            : 55\nCodec ID/Hint                       : MP3\nDuration                            : 1h 27mn\nBit rate mode                       : Variable\nBit rate                            : 128 Kbps\nChannel(s)                          : 2 channels\nSampling rate                       : 48.0 KHz\nCompression mode                    : Lossy\nStream size                         : 79.1 MiB (11%)\nAlignment                           : Aligned on interleaves\nInterleave, duration                : 24 ms (0.58 video frame)\nInterleave, preload duration        : 378 ms\n\n","torrent":{"xt":"urn:btih:77538be6f606f6a9d11ae18d65d962a14cfd9f13","amp;dn":"Videodrome.1983.BRRip.SweSub.Xvid","amp;tr":["udp%3A%2F%2Ftracker.openbittorrent.com%3A80","udp%3A%2F%2Fopen.demonii.com%3A1337","udp%3A%2F%2Ftracker.coppersurfer.tk%3A6969","udp%3A%2F%2Fexodus.desync.com%3A6969"],"infoHash":"77538be6f606f6a9d11ae18d65d962a14cfd9f13","infoHashBuffer":{"type":"Buffer","data":[119,83,139,230,246,6,246,169,209,26,225,141,101,217,98,161,76,253,159,19]},"announce":[],"urlList":[]}}